<?xml version="1.0" encoding="UTF-8"?>
<svg xmlns="http://www.w3.org/2000/svg" xmlns:xlink="http://www.w3.org/1999/xlink" width="128px" height="128px" viewBox="0 0 128 128" version="1.1">
<g id="surface1">
<path style=" stroke:none;fill-rule:nonzero;fill:rgb(95.686275%,26.274511%,21.176471%);fill-opacity:1;" d="M 1.734375 53.265625 C -1.175781 49.3125 -0.335938 43.757812 3.621094 40.84375 L 31.753906 20.113281 C 36.933594 16.289062 43.222656 14.222656 49.664062 14.222656 L 120.886719 14.222656 C 124.820312 14.222656 127.996094 17.398438 127.996094 21.332031 L 127.996094 35.554688 C 127.996094 39.488281 124.820312 42.664062 120.886719 42.664062 L 112.710938 42.664062 L 102.734375 50.664062 C 97.6875 54.710938 91.421875 56.886719 84.953125 56.886719 L 49.777344 56.886719 C 45.84375 56.886719 42.667969 53.710938 42.667969 49.777344 C 42.667969 45.84375 45.84375 42.667969 49.777344 42.667969 L 67.554688 42.667969 C 69.511719 42.667969 71.109375 41.066406 71.109375 39.113281 C 71.109375 37.15625 69.511719 35.558594 67.554688 35.558594 L 40.753906 35.558594 L 14.15625 55.15625 C 10.199219 58.066406 4.644531 57.222656 1.734375 53.265625 Z M 84.976562 42.667969 L 85.175781 42.667969 C 85.109375 42.667969 85.046875 42.667969 84.976562 42.667969 Z M 126.265625 74.734375 C 129.175781 78.6875 128.335938 84.242188 124.378906 87.15625 L 96.246094 107.886719 C 91.046875 111.710938 84.777344 113.777344 78.3125 113.777344 L 7.109375 113.777344 C 3.175781 113.777344 0 110.601562 0 106.667969 L 0 92.445312 C 0 88.511719 3.175781 85.335938 7.109375 85.335938 L 15.289062 85.335938 L 25.265625 77.335938 C 30.308594 73.289062 36.574219 71.113281 43.042969 71.113281 L 78.222656 71.113281 C 82.15625 71.113281 85.332031 74.289062 85.332031 78.222656 C 85.332031 82.15625 82.15625 85.332031 78.222656 85.332031 L 60.445312 85.332031 C 58.488281 85.332031 56.890625 86.933594 56.890625 88.886719 C 56.890625 90.84375 58.488281 92.441406 60.445312 92.441406 L 87.246094 92.441406 L 113.84375 72.84375 C 117.800781 69.933594 123.355469 70.777344 126.265625 74.734375 Z M 43.023438 85.332031 L 42.824219 85.332031 C 42.890625 85.332031 42.953125 85.332031 43.023438 85.332031 Z M 43.023438 85.332031 "/>
</g>
</svg>
